# xmcd
#
# Track frame offsets: 
#        150
#        18498
#        33939
#        44182
#        76456
#        87279
#        104518
#        118532
#        136218
#        148177
#
# Disc length: 2063 seconds
#
# Revision: 0
# Processed by: cddbd v1.5.2PL0 Copyright (c) Steve Scherf et al.
# Submitted via: ExactAudioCopy v1.0b1
#
DISCID=89080d0a
DTITLE=Johnny Cash - At San Quentin (LP)
DYEAR=1969
DGENRE=Country
TTITLE0=Peace In The Valley
TTITLE1=Wreck Of The Old 97
TTITLE2=I Walk The Line
TTITLE3=Darling Companion
TTITLE4=Starkville City Jail
TTITLE5=San Quentin
TTITLE6=San Quentin
TTITLE7=A Boy Named Sue
TTITLE8=Peace In The Valley
TTITLE9=Folsom Prison Blues
EXTD=
EXTT0=
EXTT1=
EXTT2=
EXTT3=
EXTT4=
EXTT5=
EXTT6=
EXTT7=
EXTT8=
EXTT9=
PLAYORDER=
